<?xml version="1.0" standalone="no"?>
<!DOCTYPE svg PUBLIC "-//W3C//DTD SVG 20010904//EN"
 "http://www.w3.org/TR/2001/REC-SVG-20010904/DTD/svg10.dtd">
<svg version="1.0" xmlns="http://www.w3.org/2000/svg"
 width="445.000000pt" height="445.000000pt" viewBox="0 0 445.000000 445.000000"
 preserveAspectRatio="xMidYMid meet">
<metadata>
Created by potrace 1.11, written by Peter Selinger 2001-2013
</metadata>
<g transform="translate(0.000000,445.000000) scale(0.100000,-0.100000)"
fill="#000000" stroke="none">
<path d="M1940 4209 c0 -4 9 -6 20 -4 11 2 19 -1 17 -7 -1 -6 3 -12 8 -14 6
-2 11 4 12 14 1 13 -6 18 -28 18 -16 1 -29 -2 -29 -7z"/>
<path d="M2284 4208 c-3 -4 -2 -8 3 -8 4 0 1 -5 -7 -10 -11 -7 -11 -10 -2 -10
7 0 11 -4 7 -9 -3 -5 -16 -8 -30 -5 -13 2 -27 0 -30 -6 -3 -5 1 -10 9 -10 19
0 21 -16 4 -26 -6 -4 -8 -3 -5 3 4 6 0 14 -9 17 -8 3 -13 10 -9 15 13 22 -11
17 -28 -5 -14 -18 -15 -25 -5 -28 49 -15 51 -17 40 -28 -19 -19 -14 -33 6 -15
14 13 21 14 30 5 7 -7 12 -8 12 -2 0 6 -4 14 -10 20 -6 6 -5 15 1 24 9 12 10
12 5 -3 -4 -14 0 -20 15 -24 12 -4 18 -11 15 -20 -3 -8 -1 -24 5 -35 6 -11 8
-22 5 -25 -3 -3 -10 5 -15 18 -5 13 -10 18 -10 10 -1 -8 -4 -12 -7 -9 -3 4 -1
17 6 30 11 22 10 22 -4 4 -9 -11 -16 -24 -16 -30 0 -6 -5 -5 -12 2 -9 9 -16 8
-32 -6 -17 -14 -18 -14 -8 -1 10 13 9 19 -3 29 -16 13 -21 35 -6 25 5 -3 13 0
17 6 5 9 0 10 -14 7 -13 -4 -22 -1 -22 5 0 7 -5 5 -10 -3 -5 -8 -10 -10 -10
-5 0 6 -7 2 -14 -8 -12 -16 -13 -14 -11 15 2 18 3 36 4 40 1 4 10 5 21 3 11
-2 22 0 25 5 3 5 -4 7 -15 5 -12 -2 -20 1 -20 9 0 8 -13 13 -30 14 -17 0 -28
-3 -25 -8 3 -5 14 -7 25 -5 13 3 17 -1 13 -12 -3 -8 -9 -11 -12 -6 -3 4 -17
10 -31 11 -14 2 -27 9 -29 14 -2 6 -10 0 -17 -13 l-13 -24 -1 29 c0 28 0 29
-20 11 -17 -15 -22 -16 -36 -4 -20 16 -66 13 -77 -6 -4 -8 -16 -12 -27 -10
-11 2 -20 -1 -20 -7 0 -5 7 -8 15 -5 8 4 17 1 21 -4 4 -7 -6 -10 -27 -9 -78 4
-109 0 -109 -15 0 -12 -14 -15 -64 -15 -42 0 -65 -4 -68 -12 -3 -12 -3 -42 1
-100 0 -10 9 -18 19 -18 27 0 23 -73 -6 -98 -12 -11 -22 -27 -22 -36 0 -9 -8
-16 -20 -16 -11 0 -20 -4 -20 -10 0 -5 -9 -10 -20 -10 -16 0 -20 -7 -20 -30 0
-16 -4 -30 -10 -30 -5 0 -10 -18 -10 -40 0 -22 -4 -40 -10 -40 -5 0 -10 -9
-10 -20 0 -11 -4 -20 -10 -20 -6 0 -10 -67 -10 -180 l0 -180 -70 0 c-40 0 -70
-4 -70 -10 0 -5 -7 -10 -15 -10 -18 0 -138 -117 -148 -144 -4 -11 -10 -16 -13
-13 -10 9 -46 -34 -40 -48 2 -7 -2 -16 -9 -19 -8 -3 -12 -12 -9 -21 3 -8 9
-13 13 -10 10 6 7 -33 -4 -42 -4 -5 -5 -1 0 7 7 12 6 13 -6 2 -9 -8 -10 -15
-4 -20 15 -10 18 -35 4 -26 -9 5 -10 2 -6 -9 4 -12 1 -17 -11 -17 -15 0 -15
-2 -2 -10 13 -9 12 -13 -8 -28 -18 -14 -20 -20 -10 -30 11 -11 9 -12 -6 -6
-16 6 -18 4 -13 -9 3 -9 2 -17 -4 -17 -6 0 -7 -6 -3 -12 6 -10 4 -10 -8 0 -14
11 -16 10 -14 -5 2 -10 -2 -21 -8 -25 -7 -5 -3 -8 8 -8 16 0 17 -3 8 -12 -7
-7 -12 -26 -12 -43 0 -19 -7 -36 -20 -45 -19 -13 -20 -26 -20 -192 0 -154 -2
-178 -15 -178 -20 0 -65 -45 -65 -65 0 -8 -4 -15 -10 -15 -5 0 -10 -13 -10
-30 0 -20 5 -30 15 -30 8 0 26 -5 40 -12 24 -11 26 -16 21 -49 -7 -45 7 -89
29 -89 8 0 15 -5 15 -11 0 -5 6 -7 13 -3 7 5 7 2 -2 -10 -8 -9 -10 -16 -5 -15
36 6 54 -26 27 -48 -10 -8 -12 -12 -5 -8 8 4 12 -2 12 -19 0 -14 6 -26 13 -26
8 0 9 -3 1 -8 -6 -4 -11 -29 -12 -57 -1 -57 -4 -74 -17 -95 -8 -13 -7 -13 8
-1 15 12 17 12 12 -2 -4 -8 -1 -18 5 -22 8 -5 8 -11 -1 -21 -6 -8 -7 -14 -2
-14 5 0 10 -6 11 -12 7 -51 10 -62 25 -73 18 -13 24 -30 7 -20 -6 3 -7 -1 -4
-10 6 -14 8 -14 19 1 11 16 12 16 18 0 5 -11 3 -15 -4 -10 -7 4 -10 1 -7 -7 3
-8 12 -13 21 -13 8 1 14 -5 12 -15 -1 -9 3 -20 9 -24 6 -5 0 -5 -14 -2 -24 7
-24 7 -5 -9 12 -9 15 -15 7 -16 -7 0 -10 -5 -7 -10 4 -6 12 -7 18 -3 7 4 6 0
-2 -10 -7 -9 -20 -17 -27 -17 -8 0 -11 -6 -7 -17 4 -11 3 -14 -5 -9 -8 5 -12
0 -12 -13 0 -12 4 -21 9 -21 5 0 12 -16 15 -36 5 -25 11 -34 21 -30 13 5 14 2
15 -62 0 -12 6 -22 13 -22 7 0 8 -3 2 -8 -19 -14 -16 -44 6 -63 12 -10 18 -19
13 -19 -6 0 -15 5 -22 12 -9 9 -12 8 -12 -5 0 -9 5 -17 10 -17 6 0 10 -7 10
-16 0 -8 4 -13 8 -10 4 2 9 -7 10 -22 1 -14 8 -29 15 -34 9 -6 9 -8 0 -8 -7 0
-13 -7 -13 -15 0 -8 6 -12 13 -9 7 2 14 -3 15 -13 4 -37 8 -53 17 -60 4 -4 5
-3 1 4 -3 6 -1 15 6 19 7 4 10 3 5 -1 -4 -5 0 -19 9 -33 9 -13 11 -21 5 -18
-6 4 -11 0 -11 -9 0 -9 4 -14 9 -10 13 8 20 -6 26 -55 3 -24 8 -46 12 -49 3
-3 3 4 0 16 -3 13 -1 26 4 29 5 3 9 -26 9 -66 0 -54 3 -69 13 -64 9 6 9 4 -1
-8 -14 -17 -14 -188 -1 -188 5 0 7 23 5 50 -2 28 -1 52 3 54 4 3 7 -29 6 -70
0 -42 3 -78 7 -80 5 -3 6 -10 2 -15 -3 -5 -10 -7 -15 -3 -5 3 -7 10 -4 15 4 5
2 9 -4 9 -5 0 -9 -9 -8 -20 1 -13 8 -20 22 -20 11 0 15 -4 10 -8 -18 -12 -11
-37 10 -35 19 1 19 1 3 -11 -24 -18 -23 -26 5 -27 20 -1 20 -2 2 -6 -33 -8
-38 -19 -25 -57 9 -28 17 -36 35 -36 13 0 27 -5 31 -12 5 -8 2 -9 -9 -5 -9 3
-19 1 -23 -5 -4 -7 -3 -8 4 -4 7 4 12 3 12 -2 0 -5 12 -8 26 -6 26 2 30 -16 4
-24 -8 -3 -10 0 -5 9 5 8 0 6 -12 -4 -11 -9 -23 -15 -26 -12 -4 3 -5 2 -2 -2
9 -11 44 -13 50 -3 3 6 11 10 16 10 6 0 7 -6 3 -12 -5 -9 -2 -9 9 1 14 11 17
11 17 -1 0 -10 10 -13 35 -10 29 4 34 1 29 -12 -5 -13 1 -16 27 -17 19 -1 40
0 48 1 9 1 12 -4 8 -14 -7 -17 -3 -17 188 -17 136 0 138 0 131 16 -7 19 15 15
31 -5 11 -13 12 -13 7 3 -4 10 -3 17 2 16 29 -5 43 2 37 19 -3 9 -3 14 1 10 6
-5 12 -25 15 -49 1 -4 28 -6 60 -5 33 0 57 4 55 7 -2 3 -24 5 -49 4 -25 -1
-47 1 -50 4 -2 4 23 7 56 6 45 0 58 3 54 13 -3 7 0 10 6 7 5 -4 7 -14 4 -24
-4 -14 2 -17 42 -17 27 -1 51 4 55 10 6 8 8 8 8 -1 0 -6 9 -11 19 -10 11 0 18
4 16 8 -3 3 7 11 22 18 14 6 23 14 20 18 -4 3 -13 1 -21 -6 -10 -9 -15 -9 -19
2 -3 9 8 12 44 12 26 0 51 -4 55 -8 12 -11 26 -8 18 5 -4 7 -3 8 5 4 15 -10 3
-29 -15 -22 -7 3 -16 1 -19 -4 -4 -6 -1 -10 5 -10 6 0 9 -4 6 -8 -2 -4 104 -9
236 -10 l241 -2 -19 23 c-10 12 -15 19 -10 15 5 -4 15 0 23 8 9 8 18 12 21 9
3 -3 -2 -11 -11 -18 -15 -11 -14 -13 1 -27 14 -13 15 -12 9 3 -5 13 -1 17 18
17 19 0 23 4 19 18 -3 9 1 7 9 -6 12 -21 15 -22 26 -8 7 9 18 13 23 10 6 -4 5
4 -2 16 -10 18 -9 21 1 15 9 -6 11 -2 6 16 -5 22 -5 22 7 6 15 -20 46 -22 65
-4 11 9 13 9 7 0 -4 -7 -3 -13 2 -13 5 0 12 9 15 21 3 12 10 18 16 14 6 -3 11
-2 11 4 0 17 -18 22 -23 6 -4 -8 -15 -12 -27 -10 -11 2 -20 0 -20 -5 0 -11
-27 -7 -41 7 -8 8 -8 13 0 17 6 4 11 4 11 0 0 -3 12 1 26 11 25 16 26 16 31
-6 l6 -21 13 23 c7 13 13 18 14 12 0 -7 7 -13 15 -13 8 0 14 -5 12 -12 -1 -6
7 -13 18 -15 16 -2 16 -1 4 5 -9 4 -15 15 -13 25 2 13 -2 17 -13 13 -11 -4
-13 -2 -10 9 4 8 2 17 -4 20 -5 4 -7 10 -4 15 3 5 0 12 -6 16 -7 4 -9 3 -6 -2
3 -6 2 -16 -3 -24 -5 -8 -8 14 -8 54 0 43 5 69 12 72 7 3 13 17 13 32 2 79 8
112 20 112 9 0 13 17 14 58 1 31 1 60 0 65 -1 7 15 11 32 8 4 0 7 4 7 10 0 6
-10 8 -22 5 l-23 -6 23 11 c17 9 22 21 22 51 0 25 4 38 14 38 9 0 14 16 14 58
2 74 6 92 21 102 7 4 14 22 16 39 1 18 6 35 10 39 5 4 5 -1 2 -10 -4 -10 -2
-18 3 -18 5 0 9 16 8 36 -1 25 4 39 15 46 11 6 17 22 17 43 0 19 5 37 12 41 6
4 8 3 4 -4 -3 -6 -2 -13 3 -16 11 -7 9 13 -3 33 -6 10 -5 12 2 7 11 -7 15 28
15 117 0 11 5 16 13 13 11 -4 14 9 15 62 1 37 1 70 0 74 0 5 5 8 13 8 12 0 15
32 16 182 1 101 2 190 2 199 0 9 6 16 15 15 17 -1 21 14 24 91 2 38 5 50 16
46 7 -3 13 2 13 11 0 9 7 16 15 16 8 0 15 7 15 15 0 13 19 20 43 16 5 -1 6 3
2 9 -3 5 -1 10 4 10 6 0 11 20 11 45 0 33 -4 45 -15 45 -8 0 -15 5 -15 10 0 6
-7 10 -15 10 -8 0 -15 7 -15 15 0 10 -10 15 -30 15 -30 0 -30 1 -30 55 0 30 4
55 8 55 7 0 11 20 12 58 0 9 0 27 0 40 0 13 -4 21 -8 18 -5 -3 -9 14 -10 37
-2 67 -11 130 -23 160 -7 15 -9 30 -5 34 3 3 0 13 -6 21 -8 9 -12 49 -12 108
0 52 -3 94 -8 94 -5 0 -6 -5 -2 -12 5 -7 3 -8 -6 -3 -11 7 -11 10 2 19 15 9
14 11 -4 20 -12 6 -23 18 -25 26 -4 13 -3 13 6 0 8 -12 11 -5 11 27 0 37 -3
41 -20 38 -17 -3 -19 -1 -10 15 11 20 -2 36 -20 25 -5 -3 -10 1 -10 9 0 10 -9
16 -22 17 -13 0 -18 2 -13 5 12 5 7 94 -5 94 -5 0 -7 -10 -5 -21 3 -12 1 -18
-3 -15 -7 8 -9 14 -11 46 -1 13 -6 17 -16 14 -10 -4 -15 0 -15 15 0 17 -6 21
-33 21 -18 0 -39 6 -46 13 -11 10 -13 10 -7 0 4 -7 3 -13 -3 -13 -5 0 -11 4
-13 10 -1 5 -57 10 -124 11 -96 1 -121 4 -121 15 0 17 14 18 20 2 6 -13 10 33
9 87 -1 28 0 29 14 11 8 -11 14 -15 14 -9 0 6 -7 16 -15 23 -11 9 -15 41 -17
133 -2 91 -6 121 -15 120 -8 -2 -13 7 -13 22 0 16 -6 25 -15 25 -12 0 -15 13
-15 60 0 49 -3 58 -15 54 -11 -5 -15 1 -15 20 0 17 -5 26 -16 26 -10 0 -14 6
-10 15 5 13 -10 20 -36 16 -4 0 -5 6 -1 15 3 9 0 14 -8 12 -8 -2 -13 3 -11 10
1 6 -5 12 -14 12 -9 0 -12 -5 -8 -12 4 -6 3 -8 -4 -4 -6 3 -9 15 -7 26 4 22
-10 28 -18 8 -4 -10 -6 -10 -6 0 -1 7 5 15 13 18 8 3 12 13 9 22 -4 14 -3 14
5 3 6 -8 9 -23 7 -33 -2 -10 0 -18 5 -18 10 0 21 26 13 34 -12 12 -9 88 4 93
11 4 10 8 -4 19 -17 12 -16 13 4 9 20 -3 22 0 21 31 -1 19 -6 38 -12 41 -14 9
-78 4 -91 -7 -7 -6 -14 -7 -18 -4 -8 8 3 35 12 29 4 -2 8 1 8 8 0 7 -13 12
-28 13 -24 1 -27 -1 -18 -17 7 -15 6 -17 -5 -13 -9 3 -14 11 -13 17 2 10 -12
11 -59 8 -19 -1 -10 -17 18 -32 18 -10 20 -9 14 7 -6 18 -5 18 7 2 8 -10 18
-14 23 -10 4 4 2 -1 -5 -10 -14 -19 -2 -25 15 -8 7 7 18 2 34 -15 22 -24 23
-26 7 -40 -9 -8 -13 -10 -7 -4 6 8 5 19 -1 31 -10 19 -11 19 -32 1 -11 -10
-17 -12 -13 -5 9 14 -3 16 -24 2 -13 -9 -13 -10 0 -10 11 0 11 -3 -3 -11 -14
-8 -22 -8 -30 1 -9 8 -8 10 4 5 10 -4 16 0 16 10 0 17 -6 19 -27 5 -16 -10
-54 16 -44 31 5 9 -10 13 -35 9 -10 -1 -11 4 -6 17 4 10 8 24 8 30 0 9 4 10
14 2 10 -9 13 -8 13 2 0 10 3 10 12 1 14 -14 32 -16 23 -2 -3 6 1 7 9 4 9 -3
16 -2 16 3 0 5 -15 9 -32 9 -39 0 -98 24 -98 40 0 13 -108 15 -116 2z m42 -17
c1 -6 0 -7 -3 -1 -2 5 -9 8 -13 5 -5 -3 -11 -1 -14 4 -4 5 2 8 11 7 9 -2 18
-8 19 -15z m48 3 c3 -8 2 -12 -4 -9 -6 3 -10 10 -10 16 0 14 7 11 14 -7z
m-437 -20 c-3 -3 -12 -4 -19 -1 -8 3 -5 6 6 6 11 1 17 -2 13 -5z m415 -8 c6 4
8 3 5 -3 -4 -6 0 -14 9 -17 11 -4 15 -2 11 8 -4 10 0 12 15 8 14 -3 16 -7 7
-13 -14 -8 -24 -50 -11 -48 28 5 35 -2 16 -16 -21 -16 -12 -20 15 -6 13 7 17
5 17 -8 0 -10 -6 -18 -13 -18 -7 0 -9 5 -6 11 4 6 -1 5 -10 -3 -14 -11 -18
-11 -23 3 -7 19 -25 22 -21 4 1 -8 -7 -12 -21 -12 -13 1 -21 -3 -19 -10 2 -6
14 -10 27 -8 20 2 21 0 9 -15 -9 -11 -10 -14 -1 -9 6 4 12 2 12 -3 0 -6 5 -11
11 -11 8 0 8 5 -1 15 -8 9 -9 15 -2 15 6 0 14 -5 17 -10 4 -6 11 -8 16 -5 12
8 12 -8 0 -20 -6 -6 0 -10 17 -11 15 -1 21 1 15 3 -7 3 -13 12 -13 21 0 15 2
15 11 2 9 -13 10 -12 5 2 -7 22 12 35 20 14 3 -8 14 -18 25 -21 11 -4 17 -11
13 -16 -3 -6 -12 -5 -22 3 -10 7 -14 8 -10 4 4 -5 0 -15 -10 -23 -9 -8 -11
-11 -3 -7 10 5 12 3 7 -7 -4 -8 0 -5 10 6 14 17 16 17 11 2 -6 -14 -3 -16 10
-8 19 10 27 63 9 59 -6 -2 -12 1 -13 7 -1 5 -9 12 -19 15 -10 4 -19 19 -21 36
-4 28 -3 28 11 9 8 -11 13 -22 11 -25 -2 -4 12 -15 31 -25 21 -11 33 -24 30
-32 -4 -9 -1 -11 7 -7 7 5 5 0 -3 -11 -13 -17 -13 -18 0 -10 13 7 13 6 2 -7
-9 -11 -10 -18 -2 -23 5 -3 10 1 10 10 0 9 4 14 9 11 5 -3 11 1 14 9 4 9 1 12
-8 9 -12 -5 -12 -1 1 25 9 17 17 31 19 31 1 0 2 -19 1 -42 -1 -34 2 -42 14
-40 8 2 11 0 7 -5 -5 -4 -11 -7 -13 -5 -10 6 -41 -43 -37 -58 4 -13 4 -13 -7
0 -10 13 -11 12 -6 -3 3 -11 2 -16 -4 -12 -14 9 -12 -9 2 -23 9 -9 9 -12 0
-12 -7 0 -12 -5 -12 -11 0 -8 6 -7 17 2 14 12 16 12 8 0 -6 -10 -4 -12 5 -6 9
6 11 4 5 -5 -5 -9 -4 -11 4 -6 6 4 9 11 6 16 -3 5 -1 11 5 15 5 3 10 -1 10
-10 0 -9 5 -13 10 -10 17 11 -8 34 -31 30 -13 -3 -19 0 -16 8 3 7 9 11 15 10
5 -1 8 6 5 16 -3 10 1 22 8 27 9 5 11 2 6 -9 -9 -25 2 -47 21 -40 13 4 14 3 3
-5 -9 -7 -10 -12 -2 -16 6 -4 9 -11 6 -16 -3 -4 2 -10 10 -14 9 -3 12 -12 8
-22 -5 -14 -3 -16 12 -11 15 6 16 5 5 -8 -11 -14 -14 -13 -25 2 -10 14 -10 20
-2 25 9 6 9 8 0 8 -20 0 -26 -20 -11 -38 12 -15 11 -16 -4 -3 -16 12 -22 9
-19 -11 0 -5 -3 -8 -9 -8 -5 0 -10 5 -10 11 0 5 -4 7 -10 4 -5 -3 -10 0 -10 7
0 8 -5 6 -11 -4 -5 -10 -17 -18 -25 -18 -8 0 -12 -5 -9 -10 4 -7 12 -7 24 0
14 7 24 4 41 -10 13 -11 26 -18 29 -15 3 4 -1 10 -9 15 -9 6 -10 10 -3 10 18
0 27 -20 14 -33 -18 -18 -13 -31 7 -16 9 7 14 9 10 5 -4 -5 -3 -15 3 -23 8 -8
8 -13 1 -13 -6 0 -12 5 -14 11 -2 6 -12 2 -23 -9 -19 -18 -20 -18 -37 2 -10
12 -17 16 -18 9 0 -6 5 -15 10 -18 6 -3 10 -10 10 -16 0 -5 -8 -1 -18 9 -11
10 -15 21 -10 26 18 21 7 28 -14 10 -23 -19 -23 -19 -7 1 16 19 15 50 0 41 -4
-3 -8 2 -8 11 0 9 9 18 19 21 10 2 18 9 18 14 0 5 -6 6 -12 2 -10 -6 -10 -4
-2 7 14 19 12 41 -5 47 -9 3 -11 0 -6 -9 5 -8 -1 -6 -12 4 -12 10 -20 26 -18
35 2 9 4 20 4 25 1 4 12 12 26 19 13 6 22 15 18 21 -3 6 -1 7 5 3 12 -7 17 6
6 17 -8 8 -35 -3 -29 -13 7 -11 -24 -22 -38 -13 -7 4 -8 0 -4 -11 4 -10 3 -15
-3 -11 -5 3 -8 16 -6 28 6 41 -25 52 -139 51 -104 -1 -105 -1 -101 22 4 18 1
21 -12 17 -10 -4 -6 3 8 14 14 12 29 18 35 15 5 -4 17 -7 25 -9 17 -2 41 -33
35 -43 -6 -9 33 -6 42 4 5 4 3 7 -2 6 -25 -5 -37 1 -31 16 3 8 2 23 -3 33 -7
12 -5 26 5 45 11 23 12 27 0 23 -8 -3 -13 1 -12 11 0 9 -5 16 -12 14 -8 -1
-11 2 -7 8 6 10 45 -8 45 -22 0 -5 4 -8 8 -8 5 0 9 7 9 15 0 8 -3 15 -7 15 -3
0 -15 7 -26 16 -18 14 -18 15 4 4 12 -6 28 -8 34 -4z m78 4 c0 -5 -2 -10 -4
-10 -3 0 -8 5 -11 10 -3 6 -1 10 4 10 6 0 11 -4 11 -10z m-426 -33 c3 3 6 1 6
-5 0 -7 -4 -12 -8 -12 -4 0 -8 -9 -9 -19 -1 -15 3 -18 15 -14 9 3 14 3 11 -1
-4 -4 -15 -8 -26 -10 -21 -4 -25 17 -8 43 6 11 4 13 -7 9 -8 -4 -15 0 -15 7 0
10 5 11 17 5 10 -5 20 -6 24 -3z m421 3 c-3 -5 -12 -10 -18 -10 -7 0 -6 4 3
10 19 12 23 12 15 0z m-475 -9 c0 -4 -11 -7 -24 -7 -14 0 -23 3 -21 6 5 9 45
10 45 1z m166 -6 c-3 -8 -2 -15 3 -15 5 0 8 -8 7 -17 0 -12 5 -17 16 -15 24 4
31 -13 11 -29 -15 -12 -16 -12 -10 6 7 19 7 19 -8 1 -8 -10 -12 -23 -8 -29 4
-6 1 -7 -7 -2 -9 5 -11 4 -6 -4 4 -6 12 -8 18 -5 7 5 9 1 5 -9 -3 -10 -2 -17
3 -17 6 0 10 6 10 14 0 17 17 16 45 -3 18 -11 18 -12 1 -7 -17 6 -17 4 -5 -11
7 -10 9 -15 5 -11 -5 4 -16 2 -24 -5 -13 -10 -14 -8 -8 11 11 33 0 27 -12 -7
-9 -26 -8 -29 6 -24 10 4 13 2 9 -3 -11 -12 -167 -12 -160 0 4 5 -1 7 -11 3
-12 -5 -19 1 -26 19 -6 16 -14 23 -22 18 -7 -4 -10 -4 -6 1 4 4 0 15 -10 23
-12 10 -10 10 10 -2 24 -14 27 -14 40 1 11 14 11 16 -3 11 -9 -3 -22 -2 -30 4
-11 8 -11 9 3 5 9 -3 24 1 35 10 17 14 17 14 -1 8 -19 -5 -36 9 -36 30 1 6 5
2 11 -8 6 -9 14 -15 20 -12 16 11 31 -5 19 -20 -9 -11 -7 -14 9 -12 21 1 25
26 6 39 -5 4 3 6 18 4 15 -1 30 -6 35 -11 4 -4 1 -5 -7 0 -9 5 -12 4 -7 -3 5
-8 1 -10 -11 -6 -16 6 -15 4 2 -10 11 -10 14 -14 6 -10 -9 5 -12 3 -7 -5 4 -6
12 -9 17 -6 5 4 9 1 9 -6 0 -7 3 -9 6 -6 4 3 15 2 26 -4 18 -9 18 -8 8 10 -6
12 -8 21 -5 21 3 0 1 10 -6 21 -9 17 -8 20 2 14 8 -6 10 -4 4 5 -6 9 -4 11 5
5 9 -5 11 -4 6 4 -4 6 -11 9 -16 6 -4 -3 -10 4 -13 15 -3 11 -2 19 2 18 19 -2
24 3 11 12 -13 8 -12 10 4 10 12 0 16 -5 12 -15z m-232 -55 c-6 -5 -24 21 -24
34 0 6 6 1 14 -10 8 -10 12 -21 10 -24z m160 25 c3 -8 1 -15 -4 -15 -6 0 -10
7 -10 15 0 8 2 15 4 15 2 0 6 -7 10 -15z m29 -4 c-2 -6 2 -11 9 -11 6 0 9 -3
6 -6 -4 -3 -2 -19 2 -35 8 -27 7 -28 -12 -18 -14 8 -17 14 -10 21 8 8 8 17 1
30 -5 10 -6 18 -2 18 4 0 1 5 -7 11 -13 9 -13 10 0 6 8 -2 14 -10 13 -16z
m118 -16 c12 -14 14 -24 6 -35 -10 -17 -50 -21 -64 -6 -4 4 -3 6 4 4 6 -1 20
3 31 11 20 14 20 14 -1 33 -14 11 -16 17 -7 16 8 -2 22 -12 31 -23z m479 15
c0 -5 -5 -10 -11 -10 -5 0 -7 5 -4 10 3 6 8 10 11 10 2 0 4 -4 4 -10z m64 -2
c-3 -5 -9 -6 -14 -3 -5 3 -13 -3 -19 -12 -11 -20 -14 -13 -5 10 3 9 14 15 24
14 10 -1 16 -5 14 -9z m-823 -21 c-10 -9 -11 -8 -5 6 3 10 9 15 12 12 3 -3 0
-11 -7 -18z m819 -7 c0 -5 -5 -10 -11 -10 -5 0 -7 5 -4 10 3 6 8 10 11 10 2 0
4 -4 4 -10z m-1080 -10 c0 -5 -5 -10 -11 -10 -5 0 -7 5 -4 10 3 6 8 10 11 10
2 0 4 -4 4 -10z m296 -2 c4 -7 4 -10 -1 -6 -4 4 -15 2 -24 -5 -14 -11 -14 -10
-2 6 16 20 18 21 27 5z m476 -3 c21 1 25 -1 18 -11 -6 -6 -16 -11 -23 -10 -25
6 -47 19 -47 28 0 7 4 7 13 1 6 -6 24 -9 39 -8z m191 0 c-3 -9 -8 -14 -10 -11
-3 3 -2 9 2 15 9 16 15 13 8 -4z m-699 -44 c17 -19 17 -19 0 -17 -9 2 -18 10
-20 19 -3 21 -1 21 20 -2z m29 -41 c3 6 5 6 3 -1 -1 -7 -13 -13 -27 -15 -13
-1 -18 0 -11 2 6 3 9 11 5 17 -4 8 -1 7 9 -1 11 -9 18 -9 21 -2z m-255 -65
c-3 -29 -11 -23 -16 11 -2 16 1 23 7 19 6 -3 10 -17 9 -30z m937 15 c3 -6 -1
-7 -9 -4 -18 7 -21 14 -7 14 6 0 13 -4 16 -10z m0 -28 c-3 -3 -11 0 -18 7 -9
10 -8 11 6 5 10 -3 15 -9 12 -12z m26 -15 c-6 -8 -8 -17 -4 -20 3 -4 1 -7 -5
-7 -15 0 -15 13 0 28 16 16 23 15 9 -1z m74 -37 c3 -5 1 -10 -4 -10 -6 0 -11
5 -11 10 0 6 2 10 4 10 3 0 8 -4 11 -10z m-231 -55 c-9 -14 -18 -25 -20 -25
-7 0 0 24 11 37 18 23 26 13 9 -12z m194 -10 c-3 -3 -9 2 -12 12 -6 14 -5 15
5 6 7 -7 10 -15 7 -18z m-60 -40 c-3 -3 -9 2 -12 12 -6 14 -5 15 5 6 7 -7 10
-15 7 -18z m34 -49 c7 4 8 2 4 -5 -9 -14 -36 3 -36 23 0 6 5 3 11 -7 6 -9 15
-14 21 -11z m45 5 c0 -11 -5 -18 -9 -15 -4 3 -5 11 -1 19 7 21 12 19 10 -4z
m-91 -53 c3 -4 -1 -5 -10 -4 -8 1 -18 5 -22 8 -3 4 1 5 10 4 8 -1 18 -5 22 -8z
m67 -13 c-7 -21 -12 -19 -10 4 0 11 5 18 9 15 4 -3 5 -11 1 -19z m-104 -8 c0
-9 -2 -8 -6 1 -2 6 -10 9 -15 6 -7 -4 -8 -2 -4 5 9 13 26 5 25 -12z m42 -30
c-10 -9 -11 -8 -5 6 3 10 9 15 12 12 3 -3 0 -11 -7 -18z m-1182 -438 c1 11 4
11 18 0 15 -12 16 -12 10 3 -5 15 -4 16 13 6 10 -7 16 -16 13 -22 -4 -5 1 -7
10 -3 16 6 41 -15 30 -26 -3 -4 0 -7 8 -7 10 -1 9 -3 -3 -11 -9 -5 -15 -15
-12 -23 3 -7 -3 -19 -13 -27 -17 -13 -17 -13 -3 6 12 17 12 18 0 7 -26 -23
-16 -72 15 -72 6 0 3 5 -5 11 -13 9 -13 10 0 7 8 -3 19 -14 25 -26 5 -12 16
-22 23 -22 8 0 10 -5 6 -12 -6 -10 -4 -10 8 0 13 10 18 10 24 1 5 -8 3 -9 -6
-4 -8 5 -11 4 -7 -2 4 -6 18 -9 32 -8 14 2 25 0 25 -5 0 -5 8 -7 18 -5 9 1 27
-2 40 -6 15 -6 22 -5 22 4 0 8 4 7 10 -3 5 -8 10 -10 10 -5 0 14 53 13 62 0 5
-6 8 -5 8 4 0 10 6 10 26 -4 15 -9 24 -13 20 -7 -3 6 9 12 28 14 19 2 32 0 29
-5 -3 -5 4 -6 15 -3 11 4 23 2 27 -5 6 -8 10 -7 16 2 7 12 9 12 9 0 0 -10 3
-11 14 -2 11 9 16 9 22 0 5 -8 3 -10 -7 -4 -8 5 -11 4 -6 -1 13 -14 30 -11 45
6 9 11 12 12 10 1 -2 -7 3 -16 11 -19 8 -2 11 0 8 5 -3 5 4 9 16 8 12 -1 29 8
39 19 15 18 19 19 28 6 8 -13 14 -8 12 11 -1 3 5 6 13 6 8 0 12 -4 10 -8 -9
-14 24 -17 36 -3 10 12 14 13 28 1 17 -15 45 -12 36 4 -4 5 1 6 9 3 9 -3 13
-11 9 -18 -3 -6 4 -2 17 9 13 11 20 14 15 6 -6 -11 -4 -13 7 -8 9 3 21 0 28
-6 9 -8 11 -9 7 -1 -4 7 2 14 12 17 15 3 18 1 14 -11 -5 -11 -3 -13 8 -6 19
12 51 16 45 6 -3 -5 1 -9 9 -9 8 0 12 4 9 9 -3 4 0 8 5 8 6 0 11 -6 11 -12 0
-9 4 -8 10 2 8 13 10 13 10 1 0 -12 3 -12 12 -3 15 15 28 15 28 1 0 -5 -5 -7
-12 -3 -7 5 -8 3 -4 -5 6 -9 12 -9 24 2 18 15 55 19 46 5 -3 -4 0 -8 5 -8 6 0
11 6 11 13 0 9 2 9 9 -1 7 -11 9 -11 14 2 4 9 3 23 0 33 -5 12 -3 14 7 8 10
-6 12 -4 7 9 -5 13 -3 17 7 13 10 -4 14 0 11 13 -2 12 1 17 10 14 7 -3 16 0
21 7 5 8 3 10 -6 4 -9 -6 -11 -4 -6 4 5 7 14 10 22 7 9 -3 14 2 14 14 0 11 5
20 12 20 6 0 3 7 -8 15 -19 15 -19 15 0 8 15 -5 18 -3 14 9 -4 8 2 22 13 31
13 12 19 13 19 4 0 -9 2 -9 8 0 9 15 34 12 56 -6 9 -8 19 -11 23 -7 3 3 0 6
-7 6 -7 0 -11 2 -8 5 3 3 13 3 22 -1 12 -5 14 -10 6 -19 -17 -20 50 -8 74 13
11 10 17 12 13 7 -3 -6 -2 -17 4 -25 7 -12 9 -12 9 -1 0 11 3 11 15 1 12 -10
15 -9 16 6 1 17 2 17 6 -1 5 -20 53 -71 53 -57 0 5 -3 12 -7 18 -5 5 -1 1 9
-8 9 -10 21 -18 26 -18 5 0 13 -7 16 -16 3 -8 11 -12 17 -8 8 4 9 3 5 -4 -4
-7 -2 -12 5 -12 7 0 9 -3 6 -7 -4 -3 -17 2 -30 13 -13 10 -6 3 15 -17 20 -20
34 -40 30 -45 -4 -5 1 -2 11 5 20 15 23 2 5 -18 -11 -11 -10 -12 1 -6 11 6 13
3 9 -13 -4 -13 2 -29 14 -41 12 -14 15 -21 6 -22 -7 0 -4 -4 7 -9 11 -5 14 -9
8 -9 -7 -1 -13 -6 -13 -12 0 -5 6 -7 13 -3 7 5 6 0 -3 -11 -9 -12 -10 -16 -2
-11 9 6 11 1 8 -18 -3 -15 -1 -24 4 -21 4 3 11 -2 14 -11 3 -9 2 -12 -5 -8 -6
3 -5 -3 2 -14 7 -12 17 -18 21 -16 13 8 9 -11 -4 -25 -11 -10 -9 -11 6 -5 13
5 17 4 12 -4 -4 -7 -2 -12 3 -12 6 0 11 -5 11 -11 0 -5 -6 -7 -12 -3 -7 5 -2
-5 10 -21 17 -22 20 -30 10 -37 -8 -5 -9 -8 -2 -8 16 0 24 -49 13 -77 -6 -16
-5 -23 3 -23 6 0 9 -3 5 -6 -3 -4 0 -22 8 -40 8 -19 12 -34 9 -34 -3 0 -2 -6
3 -12 12 -21 13 -40 0 -62 -6 -12 -10 -24 -9 -28 1 -5 -5 -8 -13 -8 -8 0 -15
-5 -15 -11 0 -5 5 -7 12 -3 7 4 8 3 4 -5 -9 -14 -26 -5 -26 15 0 13 -13 19
-34 15 -5 -1 -18 6 -30 17 -31 27 -79 57 -96 59 -27 3 -60 12 -70 18 -6 3 -10
1 -10 -6 0 -8 -4 -8 -12 -2 -12 9 -48 13 -140 17 -16 0 -28 4 -28 9 0 4 -9 3
-19 -3 -11 -5 -22 -6 -25 -2 -6 10 -57 9 -75 -2 -10 -7 -12 -5 -6 3 5 9 1 12
-11 10 -11 -2 -25 1 -33 5 -11 7 -13 5 -8 -7 4 -11 2 -14 -8 -10 -8 3 -12 10
-8 17 3 6 -3 3 -14 -7 -16 -14 -23 -15 -29 -6 -4 8 -3 10 4 5 8 -5 10 -2 6 9
-6 14 -8 14 -20 -2 -11 -15 -13 -15 -14 -3 0 12 -3 11 -11 -2 -5 -10 -15 -18
-22 -18 -8 0 -6 4 3 11 12 8 9 10 -13 6 -15 -2 -45 -1 -67 3 -24 4 -43 3 -50
-4 -8 -8 -10 -7 -5 5 4 10 0 16 -9 16 -8 0 -13 -4 -11 -8 3 -4 -2 -9 -9 -12
-10 -4 -13 0 -11 14 3 16 1 18 -9 10 -7 -6 -16 -8 -19 -4 -4 3 -7 2 -7 -4 0
-5 -7 -10 -15 -10 -8 0 -12 3 -10 7 2 4 -9 7 -25 7 -17 0 -30 -3 -30 -7 0 -4
-7 -7 -15 -7 -8 0 -12 4 -9 9 8 12 -10 10 -24 -4 -9 -9 -12 -9 -12 2 0 10 -3
11 -11 3 -6 -6 -18 -9 -27 -6 -11 5 -13 3 -7 -8 8 -12 6 -12 -8 0 -9 7 -14 18
-11 23 4 6 -5 2 -20 -7 -24 -16 -31 -14 -27 8 1 5 -3 6 -9 2 -6 -3 -7 -12 -3
-18 4 -7 -2 -5 -12 3 -11 9 -16 10 -11 3 4 -7 2 -13 -3 -13 -6 0 -11 5 -11 11
0 5 -4 8 -9 5 -5 -4 -12 0 -14 6 -3 8 -6 5 -6 -6 -1 -16 -3 -16 -22 5 l-20 24
12 -25 c11 -24 11 -24 -7 -9 -10 9 -31 15 -46 14 -16 -1 -28 3 -28 9 0 7 -3 7
-8 1 -4 -5 -16 -15 -28 -22 -16 -9 -21 -8 -21 3 0 7 5 10 10 7 6 -4 7 -1 2 7
-6 10 -10 10 -20 -3 -9 -13 -14 -14 -25 -4 -9 9 -11 9 -6 0 3 -6 2 -14 -4 -18
-5 -3 -10 -2 -10 2 0 5 -9 9 -19 9 -16 0 -18 -3 -8 -15 10 -12 9 -13 -10 -2
-18 9 -23 9 -23 -1 0 -8 -3 -9 -8 -3 -4 6 -17 10 -29 11 -17 0 -20 -3 -12 -12
7 -9 5 -12 -8 -9 -10 1 -17 9 -15 16 1 9 -3 8 -11 -3 -16 -20 -32 -24 -21 -5
5 8 2 8 -9 -2 -9 -7 -17 -11 -17 -7 0 3 -15 0 -34 -8 -26 -11 -37 -11 -46 -3
-10 10 -10 8 -2 -9 9 -16 8 -21 -3 -21 -8 0 -12 4 -9 9 8 13 -6 9 -22 -7 -11
-10 -21 -12 -39 -5 -13 5 -26 6 -29 1 -3 -4 -38 -6 -78 -4 -40 2 -81 3 -91 4
-11 0 -15 5 -10 12 4 7 1 7 -10 -1 -9 -8 -22 -10 -28 -6 -8 4 -9 3 -5 -4 4 -7
2 -12 -4 -12 -6 0 -8 -5 -4 -12 4 -6 3 -8 -4 -4 -6 3 -15 -2 -21 -11 -6 -10
-11 -14 -11 -9 0 5 -6 4 -12 -1 -16 -12 -48 -13 -48 -1 0 4 -6 8 -14 8 -18 0
-29 27 -28 67 0 18 -6 37 -14 44 -11 9 -12 15 -2 26 9 11 9 16 -3 24 -11 7
-11 9 3 9 12 0 16 5 11 18 -3 9 -3 14 2 10 4 -4 18 7 30 25 17 24 19 35 11 46
-9 12 -8 13 3 6 11 -6 13 -3 9 13 -3 12 -3 21 1 20 18 -2 24 3 13 11 -11 7
-11 11 2 23 8 9 12 18 9 22 -3 3 0 12 6 20 7 8 10 20 6 26 -4 6 -1 9 7 8 7 -2
12 5 12 14 -1 10 3 15 9 11 6 -4 8 0 4 11 -4 9 -3 15 2 12 5 -3 12 1 15 10 4
10 2 13 -7 8 -9 -6 -9 -5 0 8 7 8 9 19 5 24 -4 4 1 3 10 -4 14 -11 16 -10 11
7 -3 13 -1 21 7 21 7 0 10 7 6 15 -3 8 -1 15 5 15 6 0 7 5 4 10 -3 6 -1 10 5
10 6 0 8 5 5 10 -3 6 -2 10 3 10 5 0 8 11 7 25 -2 14 1 25 6 25 6 0 7 5 4 10
-3 6 -1 10 6 10 7 0 9 3 6 7 -4 3 -1 13 6 21 9 13 9 14 0 8 -9 -5 -11 -2 -7 8
3 9 11 14 16 13 6 -1 13 4 16 12 3 9 0 11 -9 6 -8 -5 -1 6 15 23 18 19 34 28
44 25 11 -5 14 -2 9 11 -4 10 -3 15 3 11 6 -3 10 0 11 7 0 7 4 4 9 -7 5 -11 9
-14 9 -6z m1618 -51 c-3 -8 -6 -5 -6 6 -1 11 2 17 5 13 3 -3 4 -12 1 -19z
m250 -125 c0 -10 -4 -10 -16 -1 -9 7 -18 13 -20 15 -2 1 5 1 16 0 11 0 20 -7
20 -14z m-1 -45 c0 -10 -1 -18 -3 -18 -1 0 -7 8 -12 18 -7 13 -6 19 2 19 7 0
13 -9 13 -19z m44 12 c0 -5 -5 -10 -11 -10 -5 0 -7 5 -4 10 3 6 8 10 11 10 2
0 4 -4 4 -10z m-120 -41 c0 -5 5 -7 12 -3 7 4 8 3 4 -5 -6 -9 -11 -9 -22 0
-17 14 -18 19 -4 19 6 0 10 -5 10 -11z m85 -19 c3 -6 -1 -7 -9 -4 -18 7 -21
14 -7 14 6 0 13 -4 16 -10z m55 -60 c0 -5 -2 -10 -4 -10 -3 0 -8 5 -11 10 -3
6 -1 10 4 10 6 0 11 -4 11 -10z m16 -35 c-1 -13 -4 -27 -7 -30 -5 -4 -4 41 0
53 4 10 8 -2 7 -23z m-79 -531 c-9 -9 -28 6 -21 18 4 6 10 6 17 -1 6 -6 8 -13
4 -17z m-2222 -694 c3 -5 1 -10 -4 -10 -6 0 -11 5 -11 10 0 6 2 10 4 10 3 0 8
-4 11 -10z m2305 -120 c0 -5 -5 -10 -11 -10 -5 0 -7 5 -4 10 3 6 8 10 11 10 2
0 4 -4 4 -10z m-90 -380 c0 -5 -5 -10 -11 -10 -5 0 -7 5 -4 10 3 6 8 10 11 10
2 0 4 -4 4 -10z m-804 -354 c0 -14 -4 -22 -8 -20 -4 3 -8 0 -8 -6 0 -6 -11 -5
-30 5 -27 14 -30 14 -39 -4 -6 -10 -7 -21 -4 -25 3 -3 1 -6 -6 -6 -8 0 -11 8
-8 20 3 10 0 18 -5 17 -6 -1 -12 6 -13 17 -3 14 -1 16 8 7 13 -13 41 -15 33
-2 -3 5 10 7 29 5 19 -1 37 1 40 7 9 14 11 11 11 -15z m-30 -51 c-2 -6 3 -20
11 -30 13 -19 14 -18 8 13 -3 17 -1 32 4 32 13 0 20 -35 10 -51 -4 -7 -6 -31
-4 -54 3 -26 1 -35 -5 -25 -5 8 -6 18 -4 22 3 4 0 8 -7 8 -7 0 -9 -10 -7 -25
4 -19 2 -23 -7 -15 -6 5 -15 7 -18 3 -4 -3 -7 1 -7 11 0 9 -5 14 -10 11 -6 -4
-8 -10 -5 -15 7 -11 -22 -7 -32 5 -4 4 -2 5 5 1 7 -4 12 -1 12 8 0 19 -11 20
-29 4 -11 -10 -13 -10 -7 0 5 7 1 12 -11 13 -13 1 -14 2 -3 5 11 4 14 16 12
52 -4 44 -3 46 11 27 14 -19 30 -16 33 6 1 5 2 13 3 19 1 6 11 5 26 -2 14 -6
24 -17 21 -23z m59 -64 c3 -5 2 -12 -3 -15 -5 -3 -9 1 -9 9 0 17 3 19 12 6z
m5 -51 c0 -5 -4 -10 -10 -10 -5 0 -10 5 -10 10 0 6 5 10 10 10 6 0 10 -4 10
-10z m-1146 -134 c3 -16 2 -25 -1 -22 -4 4 -9 19 -11 34 -4 35 5 25 12 -12z
m-27 -155 c-10 -12 -9 -14 5 -8 23 8 32 -8 18 -30 -10 -16 -10 -15 -5 3 4 16
1 22 -11 20 -9 0 -18 6 -19 15 -2 9 3 16 11 16 11 0 11 -3 1 -16z m70 -63 c2
-16 0 -19 -6 -9 -5 7 -15 17 -22 22 -11 7 -9 9 6 9 14 0 21 -7 22 -22z m69 0
c5 4 6 3 2 -2 -4 -5 -3 -14 2 -21 6 -8 5 -18 -6 -31 -14 -18 -15 -18 -4 4 6
12 9 22 8 23 -25 6 -38 5 -38 -4 0 -7 -5 -4 -11 6 -6 10 -8 21 -5 24 3 4 6 1
6 -6 0 -7 5 -9 10 -6 6 4 7 12 3 18 -5 8 -2 8 9 0 8 -7 19 -9 24 -5z m1154
-64 c0 -8 -19 -13 -24 -6 -3 5 1 9 9 9 8 0 15 -2 15 -3z m312 -12 c-3 -10 -1
-13 6 -8 7 4 12 5 12 2 0 -15 -20 -14 -29 2 -7 14 -6 19 4 19 7 0 11 -7 7 -15z
m-464 -5 c21 2 32 -2 32 -10 0 -16 -20 -37 -34 -37 -6 0 -3 5 7 11 24 14 22
33 -2 19 -23 -12 -47 -5 -55 17 -5 12 -3 13 6 6 7 -5 28 -8 46 -6z m-508 -8
c0 -10 -23 -17 -37 -11 -22 7 -14 18 12 18 14 0 25 -3 25 -7z m70 5 c0 -8 -19
-13 -24 -6 -3 5 1 9 9 9 8 0 15 -2 15 -3z m45 -3 c-9 -8 -36 -10 -30 -2 2 4
11 8 20 8 8 0 13 -3 10 -6z m111 -7 c8 11 14 15 14 9 0 -7 -5 -15 -10 -18 -6
-4 -8 -10 -6 -14 3 -3 -4 -7 -14 -7 -11 0 -17 2 -15 4 2 3 0 14 -6 26 -10 21
-10 21 6 1 16 -20 16 -20 31 -1z m78 -1 c4 -9 2 -21 -4 -27 -6 -6 -10 -6 -11
0 0 5 -2 17 -4 27 -4 22 11 22 19 0z m541 7 c-3 -5 -12 -10 -18 -10 -7 0 -6 4
3 10 19 12 23 12 15 0z m-267 -23 c9 3 14 3 11 -1 -4 -4 -16 -8 -27 -11 -16
-3 -19 0 -15 13 4 9 8 11 10 5 3 -7 12 -9 21 -6z m-318 -7 c0 -5 -2 -10 -4
-10 -3 0 -8 5 -11 10 -3 6 -1 10 4 10 6 0 11 -4 11 -10z m220 -5 c0 -1 -12 -2
-26 -2 -17 0 -22 2 -13 7 10 7 39 3 39 -5z"/>
<path d="M2355 4131 c3 -6 -4 -15 -15 -21 -25 -14 -25 -26 0 -40 16 -8 20 -8
18 2 -2 7 5 13 14 13 9 0 20 4 25 8 4 5 4 8 -2 7 -5 -1 -19 -2 -30 -1 -19 2
-19 2 -2 12 17 10 15 29 -4 29 -6 0 -8 -4 -4 -9z m-5 -41 c0 -5 -5 -10 -11
-10 -5 0 -7 5 -4 10 3 6 8 10 11 10 2 0 4 -4 4 -10z"/>
<path d="M2227 4033 c-4 -3 -2 -13 3 -23 5 -10 8 -19 7 -21 -1 -2 3 0 8 6 14
14 35 17 35 6 0 -5 -6 -12 -12 -14 -10 -4 -10 -6 0 -6 13 -1 28 26 19 35 -3 3
-11 6 -19 8 -7 1 -18 5 -24 9 -6 3 -14 4 -17 0z"/>
<path d="M2542 3923 c-17 -20 -30 -38 -27 -41 5 -5 39 32 56 61 15 26 7 21
-29 -20z"/>
<path d="M2465 3942 c-6 -6 4 -22 15 -22 4 0 10 6 13 13 5 13 -17 20 -28 9z"/>
<path d="M2489 3882 c-5 -42 -3 -47 16 -44 30 6 31 11 7 35 -13 12 -23 16 -23
9z m16 -21 c3 -5 2 -12 -3 -15 -5 -3 -9 1 -9 9 0 17 3 19 12 6z"/>
<path d="M2539 3819 c-6 -30 -7 -40 -2 -35 3 3 14 1 23 -4 14 -7 21 -4 34 14
13 20 13 24 1 22 -8 -1 -18 -5 -21 -9 -4 -4 -13 -2 -21 4 -7 6 -13 10 -14 8z"/>
<path d="M2540 3730 c0 -6 -5 -8 -11 -4 -6 3 -4 -8 5 -24 18 -35 28 -43 41
-34 12 9 16 42 5 42 -5 0 -16 7 -24 16 -9 9 -16 11 -16 4z m26 -40 c0 -12 -4
-16 -9 -11 -5 5 -6 14 -3 20 10 15 12 14 12 -9z"/>
<path d="M2115 4059 c-4 -6 -5 -12 -2 -15 2 -3 7 2 10 11 7 17 1 20 -8 4z"/>
<path d="M2010 4012 c0 -7 -4 -11 -9 -8 -14 9 -29 -17 -22 -37 6 -17 8 -17 20
-3 9 11 10 16 2 16 -6 0 -11 4 -11 8 0 5 6 9 13 9 8 0 13 -11 13 -25 -1 -24 3
-26 46 -27 26 -1 45 2 42 7 -3 5 2 8 11 6 10 -2 20 3 23 11 3 10 0 12 -11 8
-9 -3 -21 1 -28 9 -6 8 -14 12 -17 9 -3 -3 -16 2 -29 10 -13 9 -23 11 -23 5 0
-5 5 -10 11 -10 5 0 8 -4 5 -9 -3 -5 2 -8 12 -7 9 0 16 -5 15 -11 -3 -15 13
-17 20 -3 3 6 4 5 3 -2 -1 -7 -12 -14 -24 -14 -18 -1 -20 2 -11 12 16 20 -1
17 -25 -3 -13 -11 -16 -12 -9 -3 9 12 8 21 -2 40 -8 14 -14 19 -15 12z"/>
<path d="M2547 2429 c7 -7 15 -10 18 -7 3 3 -2 9 -12 12 -14 6 -15 5 -6 -5z"/>
<path d="M1367 2369 c7 -7 15 -10 18 -7 3 3 -2 9 -12 12 -14 6 -15 5 -6 -5z"/>
<path d="M1506 2368 c3 -5 10 -6 15 -3 13 9 11 12 -6 12 -8 0 -12 -4 -9 -9z"/>
<path d="M2460 686 c7 -7 13 -7 20 0 6 6 3 10 -10 10 -13 0 -16 -4 -10 -10z"/>
<path d="M2423 654 c6 -10 -24 -47 -34 -42 -2 2 -1 -1 3 -6 4 -5 2 -18 -4 -30
-10 -18 -9 -19 4 -8 13 10 17 10 22 -4 4 -9 9 -14 13 -11 3 4 11 3 17 -1 7 -5
18 -1 29 10 16 17 16 18 -2 18 -11 0 -23 5 -26 10 -5 8 -11 7 -21 -1 -17 -14
-19 2 -2 19 9 9 16 8 30 -5 18 -16 18 -16 12 0 -3 9 -10 17 -16 17 -5 0 -7 4
-4 9 3 5 -2 15 -11 22 -9 8 -14 9 -10 3z m17 -17 c0 -2 -10 -12 -22 -23 l-23
-19 19 23 c18 21 26 27 26 19z m8 -60 c8 -10 6 -13 -9 -13 -19 0 -24 7 -12 19
8 9 9 9 21 -6z"/>
<path d="M2556 4161 c3 -3 20 -6 39 -6 18 0 31 2 28 5 -2 3 -20 5 -38 5 -19 1
-32 -1 -29 -4z"/>
<path d="M2153 4143 c-17 -6 -17 -23 0 -23 8 0 14 7 14 15 0 8 -1 15 -1 14 -1
0 -7 -3 -13 -6z"/>
<path d="M2447 4126 c-4 -9 5 -12 24 -11 21 1 28 -2 25 -12 -3 -7 -3 -20 1
-28 5 -14 8 -14 29 0 13 8 24 11 24 5 0 -5 4 -10 8 -10 5 0 9 7 9 14 0 8 -3
15 -6 14 -18 -2 -31 4 -46 18 -20 21 -62 26 -68 10z"/>
<path d="M2232 4077 c-8 -10 -6 -13 9 -13 20 0 25 11 10 20 -5 3 -13 0 -19 -7z"/>
<path d="M1599 4068 c-5 -9 -5 -48 -1 -43 6 6 11 45 5 45 -2 0 -4 -1 -4 -2z"/>
<path d="M2850 3650 c0 -5 5 -10 11 -10 5 0 7 5 4 10 -3 6 -8 10 -11 10 -2 0
-4 -4 -4 -10z"/>
<path d="M1010 1920 c0 -5 5 -10 11 -10 5 0 7 5 4 10 -3 6 -8 10 -11 10 -2 0
-4 -4 -4 -10z"/>
<path d="M1000 1856 c0 -2 8 -10 18 -17 15 -13 16 -12 3 4 -13 16 -21 21 -21
13z"/>
<path d="M1013 1795 c0 -8 4 -15 9 -15 4 0 8 4 8 9 0 6 -4 12 -8 15 -5 3 -9
-1 -9 -9z"/>
<path d="M1013 1735 c0 -8 4 -12 9 -9 5 3 6 10 3 15 -9 13 -12 11 -12 -6z"/>
<path d="M1107 1389 c7 -7 15 -10 18 -7 3 3 -2 9 -12 12 -14 6 -15 5 -6 -5z"/>
<path d="M3135 479 c-4 -6 -5 -12 -2 -15 2 -3 7 2 10 11 7 17 1 20 -8 4z"/>
<path d="M1310 420 c0 -5 5 -10 11 -10 5 0 7 5 4 10 -3 6 -8 10 -11 10 -2 0
-4 -4 -4 -10z"/>
<path d="M1313 299 c-1 -10 3 -19 8 -19 6 0 8 4 5 9 -4 5 -1 11 6 13 8 3 7 6
-3 10 -10 4 -15 -1 -16 -13z"/>
<path d="M1290 256 c0 -2 7 -7 16 -10 8 -3 12 -2 9 4 -6 10 -25 14 -25 6z"/>
<path d="M3195 190 c3 -5 8 -10 11 -10 2 0 4 5 4 10 0 6 -5 10 -11 10 -5 0 -7
-4 -4 -10z"/>
<path d="M3046 175 c-10 -8 -23 -12 -29 -8 -6 3 -7 1 -3 -5 5 -8 13 -9 25 -2
10 5 21 6 25 3 3 -3 6 1 6 10 0 20 0 20 -24 2z"/>
<path d="M1345 130 c-3 -5 -2 -10 4 -10 5 0 13 5 16 10 3 6 2 10 -4 10 -5 0
-13 -4 -16 -10z"/>
<path d="M2370 73 c0 -8 -4 -12 -9 -9 -4 3 -16 0 -26 -8 -15 -11 -16 -13 -1
-13 9 0 16 5 16 11 0 6 5 5 12 -2 16 -16 31 -15 25 2 -3 7 -1 18 4 23 6 6 4
10 -6 10 -8 0 -15 -7 -15 -14z"/>
<path d="M2000 50 c-9 -6 -10 -10 -3 -10 6 0 15 5 18 10 8 12 4 12 -15 0z"/>
<path d="M1815 10 c3 -5 8 -10 11 -10 2 0 4 5 4 10 0 6 -5 10 -11 10 -5 0 -7
-4 -4 -10z"/>
</g>
</svg>
